<?xml version="1.0" encoding="UTF-8" standalone="no"?>
<!-- Created with Inkscape (http://www.inkscape.org/) -->

<svg
   xmlns:dc="http://purl.org/dc/elements/1.1/"
   xmlns:cc="http://creativecommons.org/ns#"
   xmlns:rdf="http://www.w3.org/1999/02/22-rdf-syntax-ns#"
   xmlns:svg="http://www.w3.org/2000/svg"
   xmlns="http://www.w3.org/2000/svg"
   xmlns:sodipodi="http://sodipodi.sourceforge.net/DTD/sodipodi-0.dtd"
   xmlns:inkscape="http://www.inkscape.org/namespaces/inkscape"
   width="2.7250652in"
   height="2.0638402in"
   viewBox="0 0 245.25588 185.74561"
   id="svg2"
   version="1.1"
   inkscape:version="0.92.3 (2405546, 2018-03-11)"
   sodipodi:docname="Demo-Icon.svg"
   inkscape:export-filename="/home/mpnerem/odu/Astronomy-PHYS103-PHYS104/Figures/Demo-Icon.png"
   inkscape:export-xdpi="96"
   inkscape:export-ydpi="96">
  <sodipodi:namedview
     id="base"
     pagecolor="#ffffff"
     bordercolor="#666666"
     borderopacity="1.0"
     inkscape:pageopacity="0.0"
     inkscape:pageshadow="2"
     inkscape:zoom="0.98994949"
     inkscape:cx="-32.550507"
     inkscape:cy="50.278081"
     inkscape:document-units="px"
     inkscape:current-layer="layer1"
     showgrid="false"
     fit-margin-top="0"
     fit-margin-left="0"
     fit-margin-right="0"
     fit-margin-bottom="0"
     inkscape:window-width="1920"
     inkscape:window-height="1025"
     inkscape:window-x="1920"
     inkscape:window-y="30"
     inkscape:window-maximized="1"
     units="in"
     borderlayer="true" />
  <defs
     id="defs4" />
  <metadata
     id="metadata7">
    <rdf:RDF>
      <cc:Work
         rdf:about="">
        <dc:format>image/svg+xml</dc:format>
        <dc:type
           rdf:resource="http://purl.org/dc/dcmitype/StillImage" />
        <dc:title></dc:title>
      </cc:Work>
    </rdf:RDF>
  </metadata>
  <g
     id="layer1"
     inkscape:groupmode="layer"
     inkscape:label="Layer 1"
     transform="translate(-926.17006,-493.44428)">
    <g
       id="g1127"
       transform="matrix(2.3311565,0,0,2.3311565,-1053.9291,-739.6384)">
      <path
         id="path1114"
         d="m 850.25185,573.99932 c 1.04527,-2.59752 8.55573,-9.12017 14.51023,-12.60172 2.353,-1.3758 5.3636,-3.47781 6.6903,-4.67114 2.1672,-1.94937 2.9429,-2.30535 7.6388,-3.50565 8.9155,-2.27889 10.7523,-2.98958 16.6301,-6.4345 3.136,-1.83796 6.6024,-3.68634 7.7032,-4.10751 3.9068,-1.49476 4.4254,0.32089 1.1033,3.86355 -1.5206,1.62167 -2.7238,3.5636 -2.2079,3.5636 1.0714,0 13.9142,-7.56167 18.1931,-10.71182 0.5689,-0.41883 1.6304,-0.69235 2.359,-0.60781 1.2969,0.15047 1.243,0.24319 -2.5754,4.43001 -2.1449,2.35197 -3.9014,4.65049 -3.9032,5.10782 0,0.45733 0.1059,0.83151 0.2393,0.83151 0.7935,0 8.488,-4.18572 12.8852,-7.00946 7.8361,-5.03208 11.3436,-7.13771 16.8065,-10.08912 5.5171,-2.98074 7.029,-3.51229 8.0814,-2.84124 0.5699,0.36339 0.057,1.04492 -2.6172,3.4784 -6.1404,5.58727 -20.0571,21.91749 -21.1677,24.83863 -0.7471,1.96499 -0.1731,1.90328 2.1415,-0.23025 1.1755,-1.08354 2.4627,-1.97006 2.8606,-1.97006 1.1131,0 0.8788,2.01391 -0.4646,3.99354 -0.6533,0.96273 -1.1878,1.98345 -1.1878,2.26827 0,0.28482 -0.9645,2.55378 -2.1432,5.04212 -1.1787,2.48835 -2.0396,4.62778 -1.9131,4.75429 0.1265,0.12651 1.1428,-0.59465 2.2585,-1.60258 1.6409,-1.48251 2.0583,-1.6773 2.185,-1.01967 0.086,0.44711 -0.34,1.50874 -0.9469,2.35919 -1.1907,1.66871 -8.4642,16.00807 -8.4666,16.69175 -8e-4,0.228 0.3192,0.14836 0.7112,-0.17696 2.2393,-1.85848 -2.0641,5.14862 -4.5338,7.38221 -0.5673,0.51306 -1.4168,1.6812 -1.8877,2.59586 -0.4709,0.91465 -1.4638,2.23606 -2.2064,2.93644 -2.0493,1.93286 -11.4181,6.56648 -13.2768,6.56648 -0.87,0 -2.498,0.31007 -3.6178,0.68904 -2.5696,0.86962 -16.0048,1.14201 -18.4285,0.37363 -0.9147,-0.28996 -4.015,-0.89557 -6.8896,-1.34579 -4.6887,-0.73432 -5.4102,-0.98195 -7.0098,-2.40588 -0.9808,-0.87302 -2.0725,-1.58731 -2.4262,-1.58731 -0.3537,0 -1.5825,-0.71525 -2.7307,-1.58944 -1.1483,-0.8742 -3.1979,-2.22175 -4.5548,-2.99457 -3.4553,-1.96796 -7.5033,-6.99324 -8.18182,-10.15711 -0.80649,-3.76051 -0.61412,-11.73501 0.34029,-14.10675 z"
         style="fill:#000000;stroke-width:0.47514629"
         inkscape:connector-curvature="0" />
      <path
         id="path1112"
         d="m 850.8632,585.99594 c 0.28512,1.54236 0.94176,3.63413 1.45919,4.64839 1.37632,2.69782 4.55819,5.95103 7.06099,7.21928 1.2029,0.60955 2.48,1.46131 2.8381,1.89279 0.3581,0.43148 1.5207,1.22004 2.5835,1.75235 1.0628,0.53231 2.5229,1.52133 3.2447,2.19781 0.9078,0.85074 2.0798,1.32856 3.8012,1.54971 6.4494,0.82856 10.1552,1.5687 10.8413,2.16528 0.559,0.48604 2.4432,0.65225 7.3943,0.65225 5.6718,0 6.932,-0.13908 8.611,-0.9503 1.0818,-0.52266 2.9228,-0.95029 4.0911,-0.95029 1.5521,0 3.1258,-0.51747 5.8435,-1.92139 2.0456,-1.05676 4.0591,-2.17929 4.4744,-2.49451 1.0956,-0.83157 2.7441,-6.21557 3.0998,-10.12417 0.5581,-6.13048 -2.1163,-11.45473 -6.3549,-12.65189 -2.0219,-0.57105 -2.2669,-0.80188 -2.7977,-2.63523 -1.0673,-3.6861 -2.5446,-5.67798 -5.7474,-7.74929 -3.7412,-2.41948 -7.9545,-3.80768 -11.887,-3.91648 -2.6933,-0.0745 -3.1128,-0.22866 -4.4155,-1.62263 -0.7918,-0.84717 -2.0131,-1.68424 -2.714,-1.86017 -1.5744,-0.39514 -7.291,0.54479 -9.1453,1.50367 -0.754,0.38991 -2.4275,0.70893 -3.7188,0.70893 -2.1017,0 -2.5901,0.21725 -4.6563,2.07097 -1.2696,1.13904 -3.2705,2.55969 -4.4465,3.15701 -1.176,0.59732 -2.7998,1.58972 -3.6085,2.20534 -0.8175,0.62239 -2.1285,1.11931 -2.9529,1.11931 -1.5876,0 -2.32998,0.88914 -2.97541,3.5636 -0.53344,2.21041 -0.49541,7.37252 0.0771,10.46966 z"
         style="fill:#7c7267;fill-opacity:1;stroke-width:0.47514629"
         inkscape:connector-curvature="0" />
      <path
         id="path1110"
         d="m 854.56468,582.89104 c 1.4333,0 4.7209,5.80447 5.1656,9.12011 0.1951,1.45453 0.091,1.80826 -0.5327,1.80826 -0.4368,0 -0.7753,-0.38273 -0.7753,-0.87665 0,-0.48216 -0.4226,-1.25909 -0.9391,-1.72652 -0.5165,-0.46742 -0.8518,-0.99111 -0.7451,-1.16374 0.1067,-0.17264 -0.2413,-1.2666 -0.7735,-2.43102 -1.2568,-2.75026 -1.84278,-4.73044 -1.3999,-4.73044 z"
         style="fill:#000000;stroke-width:0.47514629"
         inkscape:connector-curvature="0" />
      <path
         id="path1108"
         d="m 867.56888,574.34019 c 1.1159,0.002 4.1408,1.62934 4.7442,2.55253 0.192,0.29378 0.3523,0.95108 0.3563,1.46068 0.01,0.72064 -0.1194,0.79982 -0.5629,0.35636 -0.3136,-0.3136 -0.9764,-0.57018 -1.4729,-0.57018 -0.8149,0 -4.1338,-2.82297 -4.1338,-3.51608 0,-0.1568 0.4811,-0.28429 1.0691,-0.28331 z"
         style="fill:#000000;stroke-width:0.47514629"
         inkscape:connector-curvature="0" />
      <path
         id="path1106"
         d="m 875.17118,592.4756 c 4.6699,0.20718 8.1963,1.39862 8.1963,2.76925 0,0.4009 -0.3118,0.62989 -0.7127,0.5234 -0.392,-0.10412 -1.2473,-0.23691 -1.9006,-0.29509 -0.6533,-0.0582 -1.1879,-0.15072 -1.1879,-0.20564 0,-0.0549 -0.5345,-0.1805 -1.1878,-0.27903 -5.587,-0.84262 -7.6024,-1.43298 -7.6024,-2.22689 0,-0.30393 1.6178,-0.40921 4.3951,-0.286 z"
         style="fill:#000000;stroke-width:0.47514629"
         inkscape:connector-curvature="0" />
      <path
         id="path1104"
         d="m 878.22008,567.52798 c 0.4481,-0.44817 1.6494,-0.39457 4.4058,0.19658 2.8847,0.61865 4.8173,1.99058 3.9902,2.83258 -0.3118,0.31749 -0.8205,0.39688 -1.1677,0.18227 -0.3384,-0.20913 -1.1236,-0.43444 -1.745,-0.50068 -0.6213,-0.0663 -1.6385,-0.45382 -2.2603,-0.86126 -0.6219,-0.40745 -1.6727,-0.74082 -2.3352,-0.74082 -1.1682,0 -1.5366,-0.45994 -0.8878,-1.10867 z"
         style="fill:#000000;stroke-width:0.47514629"
         inkscape:connector-curvature="0" />
      <path
         id="path1102"
         d="m 885.86198,583.96877 c 5.3716,0.29508 8.5103,1.26883 10.687,3.31549 1.8183,1.70978 1.0901,2.35182 -0.9537,0.84079 -0.9317,-0.68888 -2.3256,-1.07936 -4.4187,-1.23786 -1.6817,-0.12734 -3.9499,-0.5668 -5.0405,-0.97658 -1.0906,-0.40978 -2.2044,-0.60813 -2.4752,-0.44077 -0.5569,0.34418 -2.4316,-0.68211 -2.4316,-1.33118 0,-0.23746 2.0405,-0.31228 4.6327,-0.16989 z"
         style="fill:#000000;stroke-width:0.47514629"
         inkscape:connector-curvature="0" />
      <path
         id="path1100"
         d="m 888.68478,573.81723 c 0.2115,-0.0253 1.2397,-0.006 2.285,0.0432 2.0763,0.0975 3.0885,0.67988 3.0885,1.77688 0,0.5594 -0.3729,0.63834 -1.7818,0.37727 -0.98,-0.18159 -1.8531,-0.52611 -1.9402,-0.7656 -0.087,-0.2395 -0.4487,-0.43544 -0.8035,-0.43544 -0.6979,0 -1.4813,-0.92048 -0.848,-0.99633 z"
         style="fill:#000000;stroke-width:0.47514629"
         inkscape:connector-curvature="0" />
      <path
         id="path1098"
         d="m 892.42908,599.98344 c 3.303,-1.25579 9.8467,-1.96944 11.0784,-1.20821 0.8364,0.51696 0.6163,1.22108 -0.3818,1.22108 -0.5009,0 -1.0355,0.26727 -1.1879,0.59393 -0.1928,0.41303 -0.3548,0.43342 -0.532,0.067 -0.1787,-0.3694 -0.8535,-0.39265 -2.257,-0.0778 -2.7712,0.62175 -7.4332,0.80506 -7.7426,0.30443 -0.1408,-0.2278 0.3195,-0.63299 1.0229,-0.90042 z"
         style="fill:#000000;stroke-width:0.47514629"
         inkscape:connector-curvature="0" />
      <path
         id="path1096"
         d="m 902.81438,585.09108 c 2.0631,0.703 5.6475,3.96796 6.8759,6.26324 0.696,1.3006 0.01,1.35476 -1.1401,0.0894 -0.473,-0.52266 -1.1475,-0.9503 -1.499,-0.9503 -0.3515,0 -0.6391,-0.19706 -0.6391,-0.43791 0,-0.24085 -0.9544,-1.04266 -2.1208,-1.7818 -1.1665,-0.73914 -2.1286,-1.58828 -2.1382,-1.88698 -0.01,-0.29871 -0.3381,-0.66617 -0.7301,-0.8166 -0.3919,-0.15042 -0.7127,-0.48104 -0.7127,-0.73471 0,-0.2597 0.9194,-0.14797 2.1041,0.2557 z"
         style="fill:#000000;stroke-width:0.47514629"
         inkscape:connector-curvature="0" />
      <path
         id="path1092"
         d="m 855.21508,570.23962 c 0.3266,-0.19453 1.6335,-1.06241 2.9042,-1.92862 1.2706,-0.86621 2.4876,-1.57493 2.7044,-1.57493 0.2168,0 1.6159,-1.06908 3.1091,-2.37573 2.485,-2.17461 2.9198,-2.37716 5.1354,-2.39257 1.3314,-0.009 2.9552,-0.31953 3.6085,-0.68949 0.6533,-0.36996 2.7261,-0.93661 4.6062,-1.25923 1.8801,-0.32262 3.3107,-0.76071 3.1792,-0.97353 -0.4392,-0.71069 -4.8223,-0.40716 -6.2908,0.43565 -1.8323,1.05162 -2.4857,0.44141 -1.0047,-0.93836 1.4709,-1.3703 6.3912,-1.96308 7.456,-0.89826 0.585,0.58506 1.0556,0.60349 2.9582,0.11587 1.2444,-0.31893 2.7829,-0.44927 3.4189,-0.28965 0.636,0.15962 1.7642,0.0591 2.5072,-0.22338 1.6694,-0.63468 2.9838,-0.26024 3.3712,0.96035 0.2539,0.79994 0.7399,0.92599 3.5701,0.92599 2.1482,0 4.18,-0.33815 5.9012,-0.98213 3.8239,-1.4307 4.5436,-0.64549 2.3574,2.57179 -0.6765,0.99565 -1.1066,1.93376 -0.9556,2.0847 0.1509,0.15094 1.6132,-0.37994 3.2494,-1.17975 1.6363,-0.7998 4.0168,-1.93378 5.2899,-2.51995 1.2732,-0.58617 3.6265,-2.2928 5.2297,-3.79251 1.8269,-1.70899 3.6578,-2.9493 4.9051,-3.32302 1.0947,-0.32796 3.4452,-1.74161 5.2235,-3.14144 1.7783,-1.39983 3.6969,-2.74735 4.2635,-2.9945 0.5666,-0.24714 2.0262,-1.20964 3.2436,-2.1389 2.049,-1.56398 3.5661,-2.14423 3.5661,-1.36386 0,0.17913 -2.2082,2.47765 -4.9073,5.10782 -6.5676,6.40019 -17.8997,18.70365 -17.8997,19.43415 0,0.32194 0.6468,0.96744 1.4374,1.43444 1.4136,0.83504 1.474,0.82866 3.646,-0.38532 3.2029,-1.79014 3.5487,-1.04228 1.4695,3.17876 -0.9352,1.89859 -1.9221,4.20033 -2.1932,5.11498 -0.8234,2.77883 -1.1661,6.63271 -0.6455,7.26004 0.6924,0.83431 1.2596,7.27602 0.6726,7.63877 -0.2907,0.17972 -0.6045,-1.08671 -0.8085,-3.26383 -0.1833,-1.95662 -0.5289,-3.55749 -0.768,-3.55749 -0.5811,0 -0.5331,-4.93605 0.074,-7.56832 0.2668,-1.15727 1.0824,-3.32862 1.8125,-4.82522 1.3026,-2.66979 1.3075,-2.71195 0.2645,-2.23672 -0.7855,0.35791 -1.6944,0.27465 -3.4815,-0.31893 -1.3302,-0.44181 -2.5481,-1.01291 -2.7064,-1.26912 -0.6229,-1.00794 0.3972,-2.70122 3.7093,-6.15703 8.4138,-8.77889 14.2187,-15.16121 13.7895,-15.16121 -0.256,0 -1.9372,1.17916 -3.7359,2.62037 -1.7988,1.4412 -4.0668,2.99137 -5.0401,3.44481 -0.9732,0.45344 -1.7785,1.03825 -1.7895,1.29958 -0.037,0.88659 -7.1488,5.57488 -10.5651,6.96515 -1.8695,0.76078 -3.6585,1.59854 -3.9755,1.86168 -1.0603,0.87993 -3.642,1.40354 -4.2858,0.86922 -0.7267,-0.60309 -0.4186,-1.55546 1.2065,-3.73001 1.0855,-1.45261 1.1161,-1.59289 0.2725,-1.24954 -2.866,1.16645 -5.4873,1.69798 -8.3738,1.69798 -2.6654,0 -3.3169,-0.15522 -3.7064,-0.883 -0.4066,-0.75967 -0.9939,-0.86935 -4.2055,-0.7853 -2.0532,0.0537 -4.1465,0.33768 -4.652,0.63098 -0.8698,0.50475 -0.872,0.53405 -0.041,0.54772 0.4832,0.008 1.5184,0.69946 2.3005,1.53669 1.2794,1.36966 1.7153,1.52995 4.3481,1.59911 6.3928,0.16794 14.083,4.34384 16.8078,9.12696 0.8518,1.49534 1.5514,3.09969 1.5547,3.56522 0,0.46553 0.3801,0.97238 0.8375,1.12633 2.7012,0.90933 4.7773,2.26557 5.8159,3.79927 1.4863,2.19473 2.8419,6.47003 2.8402,8.95751 0,1.88411 -1.0084,7.26621 -1.676,8.95605 -0.5852,1.4814 1.4564,-0.0694 2.3626,-1.79457 0.4217,-0.80284 1.9206,-2.90032 3.3308,-4.66105 1.6229,-2.02623 2.4825,-3.51338 2.3417,-4.05144 -0.1257,-0.48066 1.6254,-4.50984 4.0294,-9.27126 4.0516,-8.02505 4.6189,-9.59859 2.6933,-7.47086 -1.0145,1.12107 -2.1381,1.24621 -2.1381,0.23815 0,-0.39168 0.7223,-2.15566 1.6052,-3.91996 0.8829,-1.76429 1.9965,-4.27689 2.4747,-5.58354 0.4782,-1.30665 1.2975,-3.11104 1.8207,-4.00975 1.0765,-1.84917 0.6983,-1.7273 -2.386,0.76892 -1.8644,1.50897 -3.0477,1.98563 -3.0323,1.22146 0.037,-1.84477 1.7991,-4.94425 5.205,-9.15744 8.511,-10.52818 9.7104,-11.92785 14.9523,-17.44819 l 3.2686,-3.44224 -4.7081,2.42029 c -6.9925,3.59458 -10.3435,5.48841 -15.8741,8.97125 -7.526,4.73945 -16.1674,9.21223 -16.7236,8.65609 -0.6135,-0.61348 0.026,-1.82522 3.2471,-6.14871 l 2.5617,-3.43879 -4.1643,2.52061 c -2.2904,1.38633 -6.9439,3.96865 -10.3412,5.73848 -3.3973,1.76984 -6.4494,3.44293 -6.7824,3.71798 -0.3329,0.27506 -0.7398,0.36572 -0.904,0.20148 -0.1642,-0.16425 0.2685,-0.74478 0.9618,-1.29006 0.6932,-0.54529 1.2604,-1.30577 1.2604,-1.68996 0,-0.38419 0.862,-1.86538 1.9155,-3.29154 1.0536,-1.42616 1.7959,-2.59301 1.6496,-2.59301 -0.1463,0 -4.4829,2.02446 -9.6367,4.4988 -8.5038,4.08262 -13.507,5.95442 -15.9157,5.95442 -1.6245,0 -5.7918,2.03576 -7.534,3.68041 -0.9489,0.89574 -3.4952,2.64059 -5.6585,3.87746 -2.1633,1.23686 -5.6098,3.6233 -7.6589,5.30318 -3.5286,2.89278 -4.46943,3.79293 -3.1317,2.9963 z"
         style="fill:#d75341;fill-opacity:1;stroke-width:0.47514629"
         inkscape:connector-curvature="0" />
    </g>
  </g>
</svg>
