<?xml version="1.0" encoding="UTF-8" standalone="no"?>
<!-- Created with Inkscape (http://www.inkscape.org/) -->
<svg
   xmlns:svg="http://www.w3.org/2000/svg"
   xmlns="http://www.w3.org/2000/svg"
   xmlns:xlink="http://www.w3.org/1999/xlink"
   version="1.0"
   width="544.64288"
   height="522.85712"
   id="svg1901">
  <defs
     id="defs1903">
    <linearGradient
       id="linearGradient4182">
      <stop
         id="stop4184"
         style="stop-color:#000000;stop-opacity:1"
         offset="0" />
      <stop
         id="stop4186"
         style="stop-color:#000000;stop-opacity:0"
         offset="1" />
    </linearGradient>
    <linearGradient
       id="linearGradient4170">
      <stop
         id="stop4172"
         style="stop-color:#d9d1d8;stop-opacity:1"
         offset="0" />
      <stop
         id="stop4180"
         style="stop-color:#918992;stop-opacity:1"
         offset="0.48699269" />
      <stop
         id="stop4178"
         style="stop-color:#605d64;stop-opacity:1"
         offset="0.83870965" />
      <stop
         id="stop4174"
         style="stop-color:#191923;stop-opacity:1"
         offset="1" />
    </linearGradient>
    <linearGradient
       id="linearGradient4157">
      <stop
         id="stop4159"
         style="stop-color:#b7d350;stop-opacity:0.35686275"
         offset="0" />
      <stop
         id="stop4161"
         style="stop-color:#b7d350;stop-opacity:0.01568628"
         offset="1" />
    </linearGradient>
    <linearGradient
       x1="109.92527"
       y1="457.0412"
       x2="381.90805"
       y2="382.37946"
       id="linearGradient4163"
       xlink:href="#linearGradient4157"
       gradientUnits="userSpaceOnUse" />
    <linearGradient
       x1="154.862"
       y1="487.5018"
       x2="503.50394"
       y2="487.50177"
       id="linearGradient4176"
       xlink:href="#linearGradient4170"
       gradientUnits="userSpaceOnUse" />
    <radialGradient
       cx="264.42505"
       cy="566.34082"
       r="258.35715"
       fx="264.42505"
       fy="566.34082"
       id="radialGradient4188"
       xlink:href="#linearGradient4182"
       gradientUnits="userSpaceOnUse"
       gradientTransform="matrix(1.1962721,-0.4640757,0.1746184,0.4501229,-140.52764,359.4242)" />
  </defs>
  <g
     transform="translate(-12.142853,-12.362183)"
     id="layer1"
     style="opacity:1">
    <rect
       width="638.55383"
       height="579.89404"
       x="-28.491903"
       y="-25.193026"
       transform="translate(12.142853,12.362183)"
       id="rect4224"
       style="opacity:1;fill:#000000;fill-opacity:1;fill-rule:evenodd;stroke:#ffffff;stroke-width:2;stroke-linecap:round;stroke-miterlimit:4;stroke-dasharray:none;stroke-dashoffset:0;stroke-opacity:1" />
    <path
       d="M 411.92993,32.14923 L 411.92993,350.72066"
       id="path3251"
       style="opacity:1;fill:none;fill-opacity:1;fill-rule:evenodd;stroke:#a4a4be;stroke-width:4;stroke-linecap:round;stroke-miterlimit:4;stroke-dasharray:none;stroke-dashoffset:0;stroke-opacity:1" />
    <path
       d="M 212.42593,390.63625 L 82.656716,105.61803"
       id="path3255"
       style="opacity:1;fill:none;fill-opacity:1;fill-rule:evenodd;stroke:#b41d21;stroke-width:4;stroke-linecap:round;stroke-miterlimit:4;stroke-dasharray:none;stroke-dashoffset:0;stroke-opacity:1" />
    <path
       d="M 223.98521,367.60811 L 106.06707,77.849457"
       transform="translate(12.142853,12.362183)"
       id="path3253"
       style="opacity:1;fill:none;fill-opacity:1;fill-rule:evenodd;stroke:#b41d21;stroke-width:4;stroke-linecap:round;stroke-miterlimit:4;stroke-dasharray:none;stroke-dashoffset:0;stroke-opacity:1" />
    <path
       d="M 830.3454,656.19727 L 155.56348,656.19727 C 155.56348,469.95746 306.71463,318.8063 492.95444,318.8063 C 679.19425,318.8063 830.3454,469.95746 830.3454,656.19727 z"
       transform="matrix(1.4255601,0,0,1.4255601,-288.97105,-111.77897)"
       id="path2478"
       style="fill:url(#linearGradient4176);fill-opacity:1;fill-rule:evenodd;stroke:none;stroke-width:1.4029572;stroke-linecap:butt;stroke-miterlimit:4;stroke-dashoffset:0;stroke-opacity:1" />
    <path
       d="M 267.49999,414.86215 C 279.6395,403.2442 274.53544,404.07994 269.99999,404.50501 C 254.08564,405.16774 236.26561,404.61776 230.35714,411.64787 C 214.76546,414.75556 199.4256,418.74464 185.71428,428.43358 C 183.47098,431.67711 177.83848,429.59475 168.92856,422.36215 C 168.08637,418.99143 163.4845,425.01992 158.92856,430.93358 C 146.1495,440.79694 143.19968,433.45912 137.49999,430.93358 C 88.604204,461.47526 48.466876,504.78312 32.499996,533.43358 L 86.78571,534.50501 L 106.78571,511.29073 C 119.81622,495.17252 133.88608,498.64989 151.42856,481.29073 C 164.29411,469.63278 173.55802,465.57828 177.85714,472.00501 C 164.89085,488.12027 161.68317,498.543 159.99999,508.07644 C 158.88078,528.2795 163.17579,525.47214 169.64285,513.43358 C 173.44469,506.07231 177.3254,498.66175 188.57142,486.64787 C 193.83797,484.32557 191.85006,477.16696 191.78571,471.29073 C 194.33295,460.79943 203.07506,466.22253 206.07142,461.29073 C 214.60523,455.15037 222.33112,448.80803 238.21428,444.50501 C 245.37107,440.47838 247.69111,435.06982 248.21428,429.14787 C 252.66919,419.78075 260.30632,417.83883 267.49999,414.86215 z M 332.85714,368.79073 C 320.06089,371.12144 306.70555,373.13268 300.35714,379.14787 C 293.09666,381.95983 283.35776,383.72322 299.99999,396.64787 C 305.72551,408.2781 317.52245,414.51151 340.35714,410.93358 C 352.88183,418.74832 371.07065,396.68708 385.71428,399.86215 C 408.4727,412.5117 420.24161,408.67696 433.92856,407.7193 C 462.0038,382.75251 483.42304,358.46997 411.42856,343.79072 C 380.79064,346.48614 344.07333,343.10216 334.99999,367.36215 L 332.85714,368.79073 z"
       id="path2450"
       style="opacity:1;fill:url(#linearGradient4163);fill-opacity:1;fill-rule:evenodd;stroke:none;stroke-width:1;stroke-linecap:butt;stroke-miterlimit:4;stroke-dasharray:none;stroke-dashoffset:0;stroke-opacity:1" />
    <path
       d="M 492.97546,342.28016 L 32.345904,528.14823"
       id="path2476"
       style="opacity:1;fill:none;fill-opacity:1;fill-rule:evenodd;stroke:#000000;stroke-width:3;stroke-linecap:butt;stroke-miterlimit:4;stroke-dasharray:3, 6;stroke-dashoffset:0;stroke-opacity:1" />
    <path
       d="M 82.85714,538.79073 C 108.31052,488.81332 130.71225,436.95798 179.99999,401.64787 M 53.571424,536.64787 C 81.18187,488.14759 121.00137,445.1743 158.57142,411.64787 M 234.28571,377.36215 L 299.28571,540.93358 M 227.14285,378.79073 C 187.57649,415.70816 199.0334,490.33541 203.57142,537.36215 M 133.57142,537.36215 C 138.54336,483.9041 157.51264,420.06525 209.28571,388.79073 M 412.85714,537.36215 C 360.21243,480.08561 319.98626,384.17732 250.71428,369.50501 M 530.71428,540.2193 C 475.85595,458.99035 396.39724,393.45432 286.42856,355.93359 M 567.85714,475.2193 C 504.00881,422.58321 440.57028,369.70806 332.14285,343.07644 M 214.28571,537.36215 C 328.64207,493.1087 449.4673,444.54268 569.28571,396.64787 M 359.63533,342.78524 L 115.17841,442.79034 M 566.7166,499.35888 L 483.88409,542.79544"
       id="path2460"
       style="opacity:1;fill:none;fill-opacity:1;fill-rule:evenodd;stroke:url(#radialGradient4188);stroke-width:1;stroke-linecap:butt;stroke-miterlimit:4;stroke-dasharray:none;stroke-dashoffset:0;stroke-opacity:1" />
    <path
       d="M 134.07955,138.21642 C 224.41131,102.28488 311.75506,88.763385 397.62965,86.260596"
       transform="translate(12.142853,12.362183)"
       id="path4212"
       style="opacity:1;fill:none;fill-opacity:1;fill-rule:evenodd;stroke:#ffffff;stroke-width:2;stroke-linecap:round;stroke-miterlimit:4;stroke-dasharray:none;stroke-dashoffset:0;stroke-opacity:1" />
    <path
       d="M 113.96761,181.37327 C 197.19665,144.82674 287.81524,119.02864 395.53466,118.10449"
       transform="translate(12.142853,12.362183)"
       id="path4214"
       style="opacity:1;fill:none;fill-opacity:1;fill-rule:evenodd;stroke:#ffffff;stroke-width:2;stroke-linecap:round;stroke-miterlimit:4;stroke-dasharray:none;stroke-dashoffset:0;stroke-opacity:1" />
    <path
       d="M 395.94556,88.566813 L 413.5435,98.622779 L 395.94555,108.88824 C 400.05653,101.81754 399.77896,96.157575 395.94556,88.566813 z"
       id="path4216"
       style="opacity:1;fill:#ffffff;fill-opacity:1;fill-rule:evenodd;stroke:none;stroke-width:2;stroke-linecap:round;stroke-miterlimit:4;stroke-dasharray:none;stroke-dashoffset:0;stroke-opacity:1" />
    <path
       d="M 395.94555,120.41071 L 413.54349,130.46667 L 395.94554,140.73214 C 400.05652,133.66144 399.77895,128.00147 395.94555,120.41071 z"
       id="path4218"
       style="opacity:1;fill:#ffffff;fill-opacity:1;fill-rule:evenodd;stroke:none;stroke-width:2;stroke-linecap:round;stroke-miterlimit:4;stroke-dasharray:none;stroke-dashoffset:0;stroke-opacity:1" />
    <path
       d="M 161.83512,155.59212 L 141.92396,151.8032 L 155.22892,136.37446 C 153.63981,144.39753 155.74228,149.65984 161.83512,155.59212 z"
       id="path4220"
       style="opacity:1;fill:#ffffff;fill-opacity:1;fill-rule:evenodd;stroke:none;stroke-width:2;stroke-linecap:round;stroke-miterlimit:4;stroke-dasharray:none;stroke-dashoffset:0;stroke-opacity:1" />
    <path
       d="M 141.55222,198.57255 L 121.50733,195.57045 L 134.19456,179.62988 C 132.92254,187.70928 135.23055,192.88475 141.55222,198.57255 z"
       id="path4222"
       style="opacity:1;fill:#ffffff;fill-opacity:1;fill-rule:evenodd;stroke:none;stroke-width:2;stroke-linecap:round;stroke-miterlimit:4;stroke-dasharray:none;stroke-dashoffset:0;stroke-opacity:1" />
    <text
       x="293.01318"
       y="95.544624"
       id="text4226"
       xml:space="preserve"
       style="font-size:28px;font-style:normal;font-variant:normal;font-weight:normal;font-stretch:normal;text-align:end;text-anchor:end;fill:#ffffff;fill-opacity:1;stroke:none;stroke-width:1px;stroke-linecap:butt;stroke-linejoin:miter;stroke-opacity:1;font-family:Arial;-inkscape-font-specification:Arial"><tspan
         x="293.01318"
         y="95.544624"
         id="tspan4228">22.1°</tspan></text>
    <text
       x="323.2334"
       y="192.72339"
       id="text4230"
       xml:space="preserve"
       style="font-size:28px;font-style:normal;font-variant:normal;font-weight:normal;font-stretch:normal;text-align:end;text-anchor:end;fill:#ffffff;fill-opacity:1;stroke:none;stroke-width:1px;stroke-linecap:butt;stroke-linejoin:miter;stroke-opacity:1;font-family:Arial;-inkscape-font-specification:Arial"><tspan
         x="323.2334"
         y="192.72339"
         id="tspan4232">24.5°</tspan></text>
  </g>
</svg>
