<?xml version="1.0" encoding="UTF-8" standalone="no"?>
<!-- Created with Inkscape (http://www.inkscape.org/) -->

<svg
   xmlns:ns1="http://www.iki.fi/pav/software/textext/"
   xmlns:dc="http://purl.org/dc/elements/1.1/"
   xmlns:cc="http://creativecommons.org/ns#"
   xmlns:rdf="http://www.w3.org/1999/02/22-rdf-syntax-ns#"
   xmlns:svg="http://www.w3.org/2000/svg"
   xmlns="http://www.w3.org/2000/svg"
   xmlns:sodipodi="http://sodipodi.sourceforge.net/DTD/sodipodi-0.dtd"
   xmlns:inkscape="http://www.inkscape.org/namespaces/inkscape"
   width="115.55195mm"
   height="104.38197mm"
   viewBox="0 0 115.55195 104.38197"
   version="1.1"
   id="svg6227"
   inkscape:version="0.92.3 (2405546, 2018-03-11)"
   sodipodi:docname="Neutrino-Oscillations.svg"
   inkscape:export-filename="/home/mpnerem/odu/Astronomy-PHYS103-PHYS104/Figures/HomeWork/HW-13/Neutrino-Oscillations.png"
   inkscape:export-xdpi="96"
   inkscape:export-ydpi="96">
  <sodipodi:namedview
     id="base"
     pagecolor="#ffffff"
     bordercolor="#666666"
     borderopacity="1.0"
     inkscape:pageopacity="0.0"
     inkscape:pageshadow="2"
     inkscape:zoom="0.98994949"
     inkscape:cx="174.04151"
     inkscape:cy="145.27243"
     inkscape:document-units="mm"
     inkscape:current-layer="layer1"
     showgrid="false"
     inkscape:snap-object-midpoints="true"
     inkscape:window-width="1920"
     inkscape:window-height="1025"
     inkscape:window-x="1920"
     inkscape:window-y="30"
     inkscape:window-maximized="1"
     fit-margin-top="0"
     fit-margin-left="0"
     fit-margin-right="0"
     fit-margin-bottom="0" />
  <defs
     id="defs6221">
    <marker
       inkscape:stockid="Arrow1Lstart"
       orient="auto"
       refY="0"
       refX="0"
       id="marker10149"
       style="overflow:visible"
       inkscape:isstock="true">
      <path
         id="path10147"
         d="M 0,0 5,-5 -12.5,0 5,5 Z"
         style="fill:#32bef2;fill-opacity:1;fill-rule:evenodd;stroke:#32bef2;stroke-width:1.00000003pt;stroke-opacity:1"
         transform="matrix(0.8,0,0,0.8,10,0)"
         inkscape:connector-curvature="0" />
    </marker>
    <marker
       inkscape:stockid="Arrow1Lstart"
       orient="auto"
       refY="0"
       refX="0"
       id="marker9833"
       style="overflow:visible"
       inkscape:isstock="true">
      <path
         id="path9831"
         d="M 0,0 5,-5 -12.5,0 5,5 Z"
         style="fill:#e69138;fill-opacity:1;fill-rule:evenodd;stroke:#e69138;stroke-width:1.00000003pt;stroke-opacity:1"
         transform="matrix(0.8,0,0,0.8,10,0)"
         inkscape:connector-curvature="0" />
    </marker>
    <marker
       inkscape:stockid="Arrow1Lend"
       orient="auto"
       refY="0"
       refX="0"
       id="marker9781"
       style="overflow:visible"
       inkscape:isstock="true">
      <path
         id="path9779"
         d="M 0,0 5,-5 -12.5,0 5,5 Z"
         style="fill:#e69138;fill-opacity:1;fill-rule:evenodd;stroke:#e69138;stroke-width:1.00000003pt;stroke-opacity:1"
         transform="matrix(-0.8,0,0,-0.8,-10,0)"
         inkscape:connector-curvature="0" />
    </marker>
    <marker
       inkscape:stockid="Arrow1Lend"
       orient="auto"
       refY="0"
       refX="0"
       id="marker9732"
       style="overflow:visible"
       inkscape:isstock="true">
      <path
         id="path9730"
         d="M 0,0 5,-5 -12.5,0 5,5 Z"
         style="fill:#e69138;fill-opacity:1;fill-rule:evenodd;stroke:#e69138;stroke-width:1.00000003pt;stroke-opacity:1"
         transform="matrix(-0.8,0,0,-0.8,-10,0)"
         inkscape:connector-curvature="0" />
    </marker>
    <marker
       inkscape:collect="always"
       inkscape:isstock="true"
       style="overflow:visible"
       id="Arrow1Lend"
       refX="0"
       refY="0"
       orient="auto"
       inkscape:stockid="Arrow1Lend">
      <path
         transform="matrix(-0.8,0,0,-0.8,-10,0)"
         style="fill:#32bef2;fill-opacity:1;fill-rule:evenodd;stroke:#32bef2;stroke-width:1.00000003pt;stroke-opacity:1"
         d="M 0,0 5,-5 -12.5,0 5,5 Z"
         id="path822"
         inkscape:connector-curvature="0" />
    </marker>
    <marker
       inkscape:stockid="Arrow1Lstart"
       orient="auto"
       refY="0"
       refX="0"
       id="marker9548"
       style="overflow:visible"
       inkscape:isstock="true">
      <path
         id="path9546"
         d="M 0,0 5,-5 -12.5,0 5,5 Z"
         style="fill:#e69138;fill-opacity:1;fill-rule:evenodd;stroke:#e69138;stroke-width:1.00000003pt;stroke-opacity:1"
         transform="matrix(0.8,0,0,0.8,10,0)"
         inkscape:connector-curvature="0" />
    </marker>
    <marker
       inkscape:collect="always"
       inkscape:isstock="true"
       style="overflow:visible"
       id="Arrow1Lstart"
       refX="0"
       refY="0"
       orient="auto"
       inkscape:stockid="Arrow1Lstart">
      <path
         transform="matrix(0.8,0,0,0.8,10,0)"
         style="fill:#32bef2;fill-opacity:1;fill-rule:evenodd;stroke:#32bef2;stroke-width:1.00000003pt;stroke-opacity:1"
         d="M 0,0 5,-5 -12.5,0 5,5 Z"
         id="path819"
         inkscape:connector-curvature="0" />
    </marker>
    <marker
       inkscape:isstock="true"
       style="overflow:visible"
       id="Arrow1Mstart"
       refX="0"
       refY="0"
       orient="auto"
       inkscape:stockid="Arrow1Mstart">
      <path
         transform="matrix(0.4,0,0,0.4,4,0)"
         style="fill:#000000;fill-opacity:1;fill-rule:evenodd;stroke:#000000;stroke-width:1.00000003pt;stroke-opacity:1"
         d="M 0,0 5,-5 -12.5,0 5,5 Z"
         id="path825"
         inkscape:connector-curvature="0" />
    </marker>
    <filter
       height="1.2390031"
       y="-0.11950157"
       width="1.2410052"
       x="-0.1205026"
       id="filter9344"
       style="color-interpolation-filters:sRGB"
       inkscape:collect="always">
      <feGaussianBlur
         id="feGaussianBlur9346"
         stdDeviation="1.1823861"
         inkscape:collect="always" />
    </filter>
    <filter
       height="1.2390031"
       y="-0.11950157"
       width="1.2410052"
       x="-0.1205026"
       id="filter9376"
       style="color-interpolation-filters:sRGB"
       inkscape:collect="always">
      <feGaussianBlur
         id="feGaussianBlur9378"
         stdDeviation="1.1823861"
         inkscape:collect="always" />
    </filter>
    <filter
       height="1.2390031"
       y="-0.11950157"
       width="1.2410052"
       x="-0.1205026"
       id="filter9384"
       style="color-interpolation-filters:sRGB"
       inkscape:collect="always">
      <feGaussianBlur
         id="feGaussianBlur9386"
         stdDeviation="1.1823861"
         inkscape:collect="always" />
    </filter>
  </defs>
  <metadata
     id="metadata6224">
    <rdf:RDF>
      <cc:Work
         rdf:about="">
        <dc:format>image/svg+xml</dc:format>
        <dc:type
           rdf:resource="http://purl.org/dc/dcmitype/StillImage" />
        <dc:title></dc:title>
      </cc:Work>
    </rdf:RDF>
  </metadata>
  <g
     id="layer1"
     inkscape:groupmode="layer"
     inkscape:label="Layer 1"
     transform="translate(-33.505271,-46.743782)">
    <ellipse
       rx="11.774545"
       ry="11.873177"
       cy="61.454685"
       cx="48.117542"
       id="path6778"
       style="opacity:1;fill:#dc5050;fill-opacity:1;stroke:#000000;stroke-width:0.26458332;stroke-linecap:round;stroke-linejoin:round;stroke-miterlimit:4;stroke-dasharray:none;stroke-dashoffset:0;stroke-opacity:1;filter:url(#filter9344)" />
    <ellipse
       style="opacity:1;fill:#0faa7d;fill-opacity:1;stroke:#000000;stroke-width:0.26458332;stroke-linecap:round;stroke-linejoin:round;stroke-miterlimit:4;stroke-dasharray:none;stroke-dashoffset:0;stroke-opacity:1;filter:url(#filter9376)"
       id="ellipse6780"
       cx="134.44495"
       cy="61.454685"
       rx="11.774545"
       ry="11.873177" />
    <ellipse
       ry="11.873177"
       rx="11.774545"
       cy="136.41486"
       cx="91.166679"
       id="ellipse6782"
       style="opacity:1;fill:#5092dc;fill-opacity:1;stroke:#000000;stroke-width:0.26458332;stroke-linecap:round;stroke-linejoin:round;stroke-miterlimit:4;stroke-dasharray:none;stroke-dashoffset:0;stroke-opacity:1;filter:url(#filter9384)" />
    <path
       inkscape:connector-curvature="0"
       id="path9388"
       d="M 69.845622,56.229166 H 114.25783"
       style="fill:none;stroke:#e69138;stroke-width:0.79374999;stroke-linecap:butt;stroke-linejoin:miter;stroke-miterlimit:4;stroke-dasharray:none;stroke-opacity:1;marker-start:url(#marker9833)" />
    <path
       style="fill:none;stroke:#32bef2;stroke-width:0.79400003;stroke-linecap:butt;stroke-linejoin:miter;stroke-miterlimit:4;stroke-dasharray:none;stroke-opacity:1;marker-end:url(#Arrow1Lend)"
       d="M 69.845622,66.8125 H 114.25783"
       id="path9544"
       inkscape:connector-curvature="0" />
    <path
       style="fill:none;stroke:#32bef2;stroke-width:0.79374999;stroke-linecap:butt;stroke-linejoin:miter;stroke-miterlimit:4;stroke-dasharray:none;stroke-opacity:1;marker-start:url(#marker10149)"
       d="m 105.90024,121.47891 22.2061,-38.462099"
       id="path9710"
       inkscape:connector-curvature="0" />
    <path
       inkscape:connector-curvature="0"
       id="path9712"
       d="M 96.734804,116.18725 118.94091,77.725144"
       style="fill:none;stroke:#e69138;stroke-width:0.79400003;stroke-linecap:butt;stroke-linejoin:miter;stroke-miterlimit:4;stroke-dasharray:none;stroke-opacity:1;marker-end:url(#marker9781)" />
    <path
       inkscape:connector-curvature="0"
       id="path9721"
       d="M 76.662247,121.47891 54.456146,83.016811"
       style="fill:none;stroke:#32bef2;stroke-width:0.79374999;stroke-linecap:butt;stroke-linejoin:miter;stroke-miterlimit:4;stroke-dasharray:none;stroke-opacity:1;marker-start:url(#Arrow1Lstart)" />
    <path
       style="fill:none;stroke:#e69138;stroke-width:0.79400003;stroke-linecap:butt;stroke-linejoin:miter;stroke-miterlimit:4;stroke-dasharray:none;stroke-opacity:1;marker-end:url(#marker9732)"
       d="M 85.827683,116.18724 63.621583,77.725143"
       id="path9723"
       inkscape:connector-curvature="0" />
    <g
       id="g10417"
       ns1:jacobian_sqrt="1.418603"
       inkscapeversion="0.92.3"
       ns1:alignment="middle center"
       ns1:scale="4.02123610487"
       ns1:preamble="/home/mpnerem/.config/inkscape/extensions/textext/default_packages.tex"
       ns1:text="$\\nu_e$"
       ns1:pdfconverter="pdf2svg"
       ns1:texconverter="pdflatex"
       ns1:version="0.11.0"
       transform="matrix(1.418603,0,0,1.418603,-147.96345,-127.70202)"
       style="fill:#ffffff">
      <g
         id="surface1"
         style="fill:#ffffff">
        <g
           id="g10410"
           style="fill:#ffffff;fill-opacity:1">
          <path
             id="path10408"
             transform="translate(133.768,134.765)"
             d="m 2.234375,-4.296875 c 0,-0.015625 0,-0.109375 -0.125,-0.109375 -0.234375,0 -0.96875,0.078125 -1.21875,0.09375 -0.078125,0.015625 -0.1875,0.03125 -0.1875,0.203125 0,0.125 0.078125,0.125 0.234375,0.125 0.484375,0 0.5,0.0625 0.5,0.171875 0,0.0625 -0.125,0.53125 -0.1875,0.796875 L 0.640625,-0.5625 C 0.59375,-0.421875 0.53125,-0.140625 0.53125,-0.125 0.53125,-0.015625 0.625,0 0.6875,0 h 0.140625 c 0.703125,-0.125 1.78125,-0.515625 2.8125,-1.46875 1.3125,-1.21875 1.578125,-2.578125 1.578125,-2.671875 0,-0.171875 -0.109375,-0.265625 -0.28125,-0.265625 -0.078125,0 -0.3125,0.046875 -0.390625,0.328125 -0.640625,2.265625 -2.15625,3.375 -3.296875,3.75 z m 0,0"
             style="fill:#ffffff;stroke:none;stroke-width:0"
             inkscape:connector-curvature="0" />
        </g>
        <g
           id="g10414"
           style="fill:#ffffff;fill-opacity:1">
          <path
             id="path10412"
             transform="translate(138.69,136.259)"
             d="m 1.5625,-1.59375 c 0.1875,0 0.75,-0.015625 1.125,-0.140625 0.515625,-0.1875 0.609375,-0.515625 0.609375,-0.71875 0,-0.390625 -0.390625,-0.625 -0.859375,-0.625 -0.84375,0 -1.96875,0.640625 -1.96875,1.84375 0,0.703125 0.4375,1.296875 1.25,1.296875 1.1875,0 1.734375,-0.6875 1.734375,-0.78125 0,-0.046875 -0.0625,-0.125 -0.125,-0.125 -0.03125,0 -0.046875,0.015625 -0.109375,0.078125 C 2.671875,-0.125 1.859375,-0.125 1.734375,-0.125 1.3125,-0.125 1.03125,-0.40625 1.03125,-0.96875 c 0,-0.09375 0,-0.234375 0.09375,-0.625 z M 1.171875,-1.78125 C 1.46875,-2.796875 2.234375,-2.875 2.4375,-2.875 2.734375,-2.875 3,-2.71875 3,-2.453125 3,-1.78125 1.8125,-1.78125 1.515625,-1.78125 Z m 0,0"
             style="fill:#ffffff;stroke:none;stroke-width:0"
             inkscape:connector-curvature="0" />
        </g>
      </g>
    </g>
    <g
       transform="matrix(1.418603,0,0,1.418603,-62.378595,-128.71056)"
       ns1:version="0.11.0"
       ns1:texconverter="pdflatex"
       ns1:pdfconverter="pdf2svg"
       ns1:text="$\\nu_\\mu$"
       ns1:preamble="/home/mpnerem/.config/inkscape/extensions/textext/default_packages.tex"
       ns1:scale="4.02123610487"
       ns1:alignment="middle center"
       inkscapeversion="0.92.3"
       ns1:jacobian_sqrt="1.418603"
       style="fill:#ffffff"
       id="g10535">
      <g
         id="g10533"
         style="fill:#ffffff">
        <g
           style="fill:#ffffff;fill-opacity:1"
           id="g10527">
          <path
             inkscape:connector-curvature="0"
             style="fill:#ffffff;stroke:none;stroke-width:0"
             d="m 2.234375,-4.296875 c 0,-0.015625 0,-0.109375 -0.125,-0.109375 -0.234375,0 -0.96875,0.078125 -1.21875,0.09375 -0.078125,0.015625 -0.1875,0.03125 -0.1875,0.203125 0,0.125 0.078125,0.125 0.234375,0.125 0.484375,0 0.5,0.0625 0.5,0.171875 0,0.0625 -0.125,0.53125 -0.1875,0.796875 L 0.640625,-0.5625 C 0.59375,-0.421875 0.53125,-0.140625 0.53125,-0.125 0.53125,-0.015625 0.625,0 0.6875,0 h 0.140625 c 0.703125,-0.125 1.78125,-0.515625 2.8125,-1.46875 1.3125,-1.21875 1.578125,-2.578125 1.578125,-2.671875 0,-0.171875 -0.109375,-0.265625 -0.28125,-0.265625 -0.078125,0 -0.3125,0.046875 -0.390625,0.328125 -0.640625,2.265625 -2.15625,3.375 -3.296875,3.75 z m 0,0"
             transform="translate(133.768,134.765)"
             id="path10525" />
        </g>
        <g
           style="fill:#ffffff;fill-opacity:1"
           id="g10531">
          <path
             inkscape:connector-curvature="0"
             style="fill:#ffffff;stroke:none;stroke-width:0"
             d="M 0.375,1.125 C 0.34375,1.21875 0.34375,1.265625 0.34375,1.265625 c 0,0.15625 0.125,0.21875 0.234375,0.21875 0.265625,0 0.3125,-0.21875 0.34375,-0.34375 0.015625,-0.03125 0.15625,-0.59375 0.3125,-1.265625 0.21875,0.140625 0.5,0.1875 0.75,0.1875 0.59375,0 0.984375,-0.484375 1,-0.5 0.140625,0.484375 0.625,0.5 0.71875,0.5 0.25,0 0.421875,-0.140625 0.5625,-0.359375 C 4.40625,-0.578125 4.5,-0.96875 4.5,-1 c 0,-0.09375 -0.09375,-0.09375 -0.109375,-0.09375 -0.09375,0 -0.109375,0.03125 -0.15625,0.21875 -0.078125,0.34375 -0.21875,0.75 -0.5,0.75 C 3.546875,-0.125 3.5,-0.28125 3.5,-0.46875 c 0,-0.109375 0.046875,-0.375 0.109375,-0.546875 0.046875,-0.1875 0.109375,-0.46875 0.140625,-0.625 l 0.171875,-0.625 C 3.953125,-2.4375 4.03125,-2.75 4.03125,-2.78125 4.03125,-2.921875 3.921875,-3 3.8125,-3 3.734375,-3 3.59375,-2.96875 3.515625,-2.84375 3.5,-2.796875 3.4375,-2.578125 3.40625,-2.4375 l -0.140625,0.578125 -0.21875,0.875 C 3,-0.8125 3,-0.796875 2.9375,-0.703125 2.71875,-0.390625 2.40625,-0.125 2.015625,-0.125 1.4375,-0.125 1.4375,-0.625 1.4375,-0.75 c 0,-0.171875 0.03125,-0.265625 0.125,-0.640625 0.0625,-0.3125 0.078125,-0.359375 0.15625,-0.625 L 1.8125,-2.40625 c 0.03125,-0.15625 0.109375,-0.421875 0.109375,-0.4375 0,-0.125 -0.109375,-0.234375 -0.25,-0.234375 -0.25,0 -0.3125,0.25 -0.328125,0.328125 z m 0,0"
             transform="translate(138.69,136.259)"
             id="path10529" />
        </g>
      </g>
    </g>
    <g
       id="g10665"
       style="fill:#ffffff"
       ns1:jacobian_sqrt="1.418603"
       inkscapeversion="0.92.3"
       ns1:alignment="middle center"
       ns1:scale="4.02123610487"
       ns1:preamble="/home/mpnerem/.config/inkscape/extensions/textext/default_packages.tex"
       ns1:text="$\\nu_\\tau$"
       ns1:pdfconverter="pdf2svg"
       ns1:texconverter="pdflatex"
       ns1:version="0.11.0"
       transform="matrix(1.418603,0,0,1.418603,-105.34654,-52.752929)">
      <g
         style="fill:#ffffff"
         id="g10663">
        <g
           id="g10657"
           style="fill:#ffffff;fill-opacity:1">
          <path
             id="path10655"
             transform="translate(133.768,134.765)"
             d="m 2.234375,-4.296875 c 0,-0.015625 0,-0.109375 -0.125,-0.109375 -0.234375,0 -0.96875,0.078125 -1.21875,0.09375 -0.078125,0.015625 -0.1875,0.03125 -0.1875,0.203125 0,0.125 0.078125,0.125 0.234375,0.125 0.484375,0 0.5,0.0625 0.5,0.171875 0,0.0625 -0.125,0.53125 -0.1875,0.796875 L 0.640625,-0.5625 C 0.59375,-0.421875 0.53125,-0.140625 0.53125,-0.125 0.53125,-0.015625 0.625,0 0.6875,0 h 0.140625 c 0.703125,-0.125 1.78125,-0.515625 2.8125,-1.46875 1.3125,-1.21875 1.578125,-2.578125 1.578125,-2.671875 0,-0.171875 -0.109375,-0.265625 -0.28125,-0.265625 -0.078125,0 -0.3125,0.046875 -0.390625,0.328125 -0.640625,2.265625 -2.15625,3.375 -3.296875,3.75 z m 0,0"
             style="fill:#ffffff;stroke:none;stroke-width:0"
             inkscape:connector-curvature="0" />
        </g>
        <g
           id="g10661"
           style="fill:#ffffff;fill-opacity:1">
          <path
             id="path10659"
             transform="translate(138.69,136.259)"
             d="M 2.390625,-2.53125 H 3.6875 c 0.078125,0 0.375,0 0.375,-0.28125 C 4.0625,-3 3.875,-3 3.75,-3 H 1.5625 c -0.203125,0 -0.421875,0.015625 -0.78125,0.34375 -0.203125,0.1875 -0.46875,0.546875 -0.46875,0.609375 0,0.078125 0.09375,0.078125 0.125,0.078125 0.078125,0 0.078125,-0.015625 0.125,-0.078125 C 0.90625,-2.53125 1.34375,-2.53125 1.5,-2.53125 h 0.625 l -0.703125,2.234375 c -0.03125,0.109375 -0.03125,0.109375 -0.03125,0.15625 0,0.1875 0.171875,0.21875 0.234375,0.21875 0.265625,0 0.3125,-0.25 0.328125,-0.34375 z m 0,0"
             style="fill:#ffffff;stroke:none;stroke-width:0"
             inkscape:connector-curvature="0" />
        </g>
      </g>
    </g>
  </g>
  <g
     style="display:none"
     inkscape:label="Guides"
     id="layer5"
     inkscape:groupmode="layer"
     transform="translate(-33.505271,-46.743782)">
    <path
       inkscape:connector-curvature="0"
       id="path6772"
       d="M 48.002974,61.520833 H 134.55952"
       style="fill:none;stroke:#000000;stroke-width:0.26458332px;stroke-linecap:butt;stroke-linejoin:miter;stroke-opacity:1" />
    <path
       style="fill:none;stroke:#000000;stroke-width:0.26458332px;stroke-linecap:butt;stroke-linejoin:miter;stroke-opacity:1"
       d="M 134.44495,61.454689 91.166677,136.41486"
       id="path9708"
       inkscape:connector-curvature="0" />
    <path
       inkscape:connector-curvature="0"
       id="path9719"
       d="m 48.117539,61.45469 43.278273,74.96017"
       style="fill:none;stroke:#000000;stroke-width:0.26458332px;stroke-linecap:butt;stroke-linejoin:miter;stroke-opacity:1" />
    <path
       style="fill:none;stroke:#000000;stroke-width:0.26458332px;stroke-linecap:butt;stroke-linejoin:miter;stroke-opacity:1"
       d="M 91.166678,136.41486 134.44495,61.454685"
       id="path6774"
       inkscape:connector-curvature="0" />
    <path
       inkscape:connector-curvature="0"
       id="path6776"
       d="M 91.39581,136.41486 48.117542,61.454687"
       style="fill:none;stroke:#000000;stroke-width:0.26458332px;stroke-linecap:butt;stroke-linejoin:miter;stroke-opacity:1" />
  </g>
</svg>
